<mxfile host="app.diagrams.net" modified="2021-10-29T12:47:37.240Z" agent="5.0 (Macintosh; Intel Mac OS X 10_15_7) AppleWebKit/537.36 (KHTML, like Gecko) Chrome/86.0.4240.193 Safari/537.36" etag="S1RWT-AaksrFsSJuIBBL" version="15.6.2" type="github">
  <diagram id="J0Wk8DfOCDcHGnNyLJ9j" name="Page-1">
    <mxGraphModel dx="946" dy="536" grid="1" gridSize="10" guides="1" tooltips="1" connect="1" arrows="1" fold="1" page="1" pageScale="1" pageWidth="827" pageHeight="1169" math="0" shadow="0">
      <root>
        <mxCell id="0" />
        <mxCell id="1" parent="0" />
        <mxCell id="EF84_86sqDpLHbbr23-w-1" value="" style="rounded=0;whiteSpace=wrap;html=1;" vertex="1" parent="1">
          <mxGeometry x="97.5" y="90" width="152.5" height="320" as="geometry" />
        </mxCell>
        <mxCell id="EF84_86sqDpLHbbr23-w-4" value="1. 开始事务" style="rounded=0;whiteSpace=wrap;html=1;" vertex="1" parent="1">
          <mxGeometry x="110" y="120" width="125" height="40" as="geometry" />
        </mxCell>
        <mxCell id="EF84_86sqDpLHbbr23-w-6" value="2. 扣减A余额" style="rounded=0;whiteSpace=wrap;html=1;" vertex="1" parent="1">
          <mxGeometry x="110" y="180" width="125" height="40" as="geometry" />
        </mxCell>
        <mxCell id="EF84_86sqDpLHbbr23-w-7" value="3. 写本地消息表" style="rounded=0;whiteSpace=wrap;html=1;" vertex="1" parent="1">
          <mxGeometry x="110" y="240" width="125" height="40" as="geometry" />
        </mxCell>
        <mxCell id="EF84_86sqDpLHbbr23-w-8" value="4. 提交事务" style="rounded=0;whiteSpace=wrap;html=1;" vertex="1" parent="1">
          <mxGeometry x="110" y="300" width="125" height="40" as="geometry" />
        </mxCell>
        <mxCell id="EF84_86sqDpLHbbr23-w-9" value="" style="shape=cylinder3;whiteSpace=wrap;html=1;boundedLbl=1;backgroundOutline=1;size=15;rotation=90;" vertex="1" parent="1">
          <mxGeometry x="359" y="165" width="60" height="130" as="geometry" />
        </mxCell>
        <mxCell id="EF84_86sqDpLHbbr23-w-11" value="消息队列" style="text;html=1;strokeColor=none;fillColor=none;align=center;verticalAlign=middle;whiteSpace=wrap;rounded=0;" vertex="1" parent="1">
          <mxGeometry x="354" y="215" width="60" height="30" as="geometry" />
        </mxCell>
        <mxCell id="EF84_86sqDpLHbbr23-w-12" value="" style="rounded=0;whiteSpace=wrap;html=1;" vertex="1" parent="1">
          <mxGeometry x="520" y="90" width="152.5" height="320" as="geometry" />
        </mxCell>
        <mxCell id="EF84_86sqDpLHbbr23-w-13" value="1. 开始事务" style="rounded=0;whiteSpace=wrap;html=1;" vertex="1" parent="1">
          <mxGeometry x="532.5" y="120" width="125" height="40" as="geometry" />
        </mxCell>
        <mxCell id="EF84_86sqDpLHbbr23-w-14" value="2. 增加B余额" style="rounded=0;whiteSpace=wrap;html=1;" vertex="1" parent="1">
          <mxGeometry x="532.5" y="180" width="125" height="40" as="geometry" />
        </mxCell>
        <mxCell id="EF84_86sqDpLHbbr23-w-15" value="3. 提交事务" style="rounded=0;whiteSpace=wrap;html=1;" vertex="1" parent="1">
          <mxGeometry x="532.5" y="240" width="125" height="40" as="geometry" />
        </mxCell>
        <mxCell id="EF84_86sqDpLHbbr23-w-16" value="4. 提交事务" style="rounded=0;whiteSpace=wrap;html=1;" vertex="1" parent="1">
          <mxGeometry x="532.5" y="300" width="125" height="40" as="geometry" />
        </mxCell>
        <mxCell id="EF84_86sqDpLHbbr23-w-17" value="4. 删除消息" style="rounded=0;whiteSpace=wrap;html=1;" vertex="1" parent="1">
          <mxGeometry x="111.25" y="360" width="125" height="40" as="geometry" />
        </mxCell>
      </root>
    </mxGraphModel>
  </diagram>
</mxfile>
